<svg xmlns="http://www.w3.org/2000/svg" viewBox="0 0 441 134"><title>DIRECTOR_TYPO</title><path d="M92.49,60.33c5.7,0,8.82,4.19,8.82,10.79,0,7.17-3.72,11.4-9.33,11.4H84V82c2.49-.18,2.52-.21,2.52-2.79V63.68c0-2.57-.06-2.57-2.55-2.78v-.57Zm-3.06,2.55V80c0,1.68,1.23,1.89,2.34,1.89,4.2,0,6.42-2.61,6.42-8.88,0-5.9-2.07-12-6.93-12C90.15,61,89.43,61.38,89.43,62.88Z" fill="#ffffe4"/><path d="M110.46,82.52h-7.53V82c2.43-.18,2.52-.24,2.52-3.39V70.85c0-1.95-.72-2.16-2.82-2.16v-.57A7.26,7.26,0,0,0,108,66l.24.15V78.56c0,3.15.12,3.18,2.25,3.39Zm-5.79-20.76a2,2,0,0,1,2-2,2,2,0,0,1,2,2,2,2,0,0,1-2,2A2,2,0,0,1,104.67,61.76Z" fill="#ffffe4"/><path d="M119.76,82.52h-8.43V82c2.43-.18,2.52-.24,2.52-3.39V70.85c0-1.95-.72-2.16-2.82-2.16v-.57a6.17,6.17,0,0,0,5-2.1l.54.15v2.58c1.5-2,2.73-2.73,4.14-2.73s2.25.64,2.25,1.65a1.52,1.52,0,0,1-1.47,1.59c-1.26,0-1.2-1.55-2.31-1.55-1.32,0-2.61,1.88-2.61,5.87v5c0,3.15.12,3.18,3.15,3.39Z" fill="#ffffe4"/><path d="M124.2,74.81c0-5,2.46-8.79,6.51-8.79,2.4,0,5.16,1.41,5.16,6.18l-8.73.9c0,4.23,1.65,8,4.53,8a6.39,6.39,0,0,0,4.26-2.25l.36.48c-1.29,1.56-3.21,3.48-5.94,3.48C127.08,82.82,124.2,80.12,124.2,74.81Zm3-3.12H133c-.18-4.31-1.8-4.8-2.7-4.8C128.49,66.89,127.44,68.88,127.2,71.69Z" fill="#ffffe4"/><path d="M141,73c0,4.26,1.62,8.13,4.53,8.13a6.52,6.52,0,0,0,4.26-2.25l.36.48c-1.29,1.56-3.09,3.48-5.91,3.48-3.39,0-6.18-2.76-6.18-8,0-5,2.34-8.79,7.38-8.79,2.82,0,4.11,1.15,4.11,2.25A1.62,1.62,0,0,1,148,70c-2,0-1.35-3.07-3.66-3.07C142.17,66.89,141,69.47,141,73Z" fill="#ffffe4"/><path d="M159.54,81.05a4.66,4.66,0,0,1-3.6,1.77,3.05,3.05,0,0,1-3.27-3.27v-12l-1.83-.3v-.63a3.82,3.82,0,0,0,4-3.59h.57v3.18l3.66.41v.63l-3.66.37V79.13c0,1.71.57,2.37,1.65,2.37a3,3,0,0,0,2.13-1Z" fill="#ffffe4"/><path d="M174.33,74c0,5.31-2.79,8.82-7,8.82-4.35,0-6.6-3-6.6-7.95,0-5.33,2.73-8.85,7-8.85S174.33,69.05,174.33,74Zm-3.06,1.47c0-4.44-1.2-8.67-4.14-8.67-2,0-3.24,2-3.24,6.51S165,82,167.85,82C169.77,82,171.27,80.09,171.27,75.47Z" fill="#ffffe4"/><path d="M184.5,82.52h-8.43V82c2.43-.18,2.52-.24,2.52-3.39V70.85c0-1.95-.72-2.16-2.82-2.16v-.57a6.17,6.17,0,0,0,5-2.1l.54.15v2.58c1.5-2,2.73-2.73,4.14-2.73s2.25.64,2.25,1.65a1.52,1.52,0,0,1-1.47,1.59c-1.26,0-1.2-1.55-2.31-1.55-1.32,0-2.61,1.88-2.61,5.87v5c0,3.15.12,3.18,3.15,3.39Z" fill="#ffffe4"/><path d="M193.59,82.52,200.79,60h1.35l-7.2,22.49Z" fill="#ffffe4"/><path d="M213.09,82.52h-5.88V82c1.83-.15,2.49-.84,3.3-3.39l6-18.84h.78l5.85,19.44c.78,2.55.78,2.58,2.67,2.79v.57h-7.53V82c2.25-.18,2.52-.33,1.8-2.79l-1-3.3h-6.72l-.81,2.7c-.75,2.46-.54,3.21,1.53,3.39Zm5.76-7.41-3.06-10.47-3.18,10.47Z" fill="#ffffe4"/><path d="M234.12,82.52h-8.43V82c2.43-.18,2.52-.24,2.52-3.39V70.85c0-1.95-.72-2.16-2.82-2.16v-.57a6.17,6.17,0,0,0,5-2.1l.54.15v2.58c1.5-2,2.73-2.73,4.14-2.73s2.25.64,2.25,1.65a1.52,1.52,0,0,1-1.47,1.59c-1.26,0-1.2-1.55-2.31-1.55-1.32,0-2.61,1.88-2.61,5.87v5c0,3.15.12,3.18,3.15,3.39Z" fill="#ffffe4"/><path d="M246.57,81.05a4.66,4.66,0,0,1-3.6,1.77,3.05,3.05,0,0,1-3.27-3.27v-12l-1.83-.3v-.63a3.82,3.82,0,0,0,4-3.59h.57v3.18l3.66.41v.63l-3.66.37V79.13c0,1.71.57,2.37,1.65,2.37a3,3,0,0,0,2.13-1Z" fill="#ffffe4"/><path d="M261.54,60.33c5.7,0,8.82,4.19,8.82,10.79,0,7.17-3.72,11.4-9.33,11.4h-8V82c2.49-.18,2.52-.21,2.52-2.79V63.68c0-2.57-.06-2.57-2.55-2.78v-.57Zm-3.06,2.55V80c0,1.68,1.23,1.89,2.34,1.89,4.2,0,6.42-2.61,6.42-8.88,0-5.9-2.07-12-6.93-12C259.2,61,258.48,61.38,258.48,62.88Z" fill="#ffffe4"/><path d="M279.51,82.52H272V82c2.43-.18,2.52-.24,2.52-3.39V70.85c0-1.95-.72-2.16-2.82-2.16v-.57A7.26,7.26,0,0,0,277,66l.24.15V78.56c0,3.15.12,3.18,2.25,3.39Zm-5.79-20.76a2,2,0,0,1,2-2,2,2,0,0,1,2,2,2,2,0,0,1-2,2A2,2,0,0,1,273.72,61.76Z" fill="#ffffe4"/><path d="M288.81,82.52h-8.43V82c2.43-.18,2.52-.24,2.52-3.39V70.85c0-1.95-.72-2.16-2.82-2.16v-.57a6.17,6.17,0,0,0,5-2.1l.54.15v2.58c1.5-2,2.73-2.73,4.14-2.73s2.25.64,2.25,1.65a1.52,1.52,0,0,1-1.47,1.59c-1.26,0-1.2-1.55-2.31-1.55-1.32,0-2.61,1.88-2.61,5.87v5c0,3.15.12,3.18,3.15,3.39Z" fill="#ffffe4"/><path d="M293.25,74.81c0-5,2.46-8.79,6.51-8.79,2.4,0,5.16,1.41,5.16,6.18l-8.73.9c0,4.23,1.65,8,4.53,8A6.39,6.39,0,0,0,305,78.86l.36.48c-1.29,1.56-3.21,3.48-5.94,3.48C296.13,82.82,293.25,80.12,293.25,74.81Zm3-3.12h5.82c-.18-4.31-1.8-4.8-2.7-4.8C297.54,66.89,296.49,68.88,296.25,71.69Z" fill="#ffffe4"/><path d="M310.05,73c0,4.26,1.62,8.13,4.53,8.13a6.52,6.52,0,0,0,4.26-2.25l.36.48c-1.29,1.56-3.09,3.48-5.91,3.48-3.39,0-6.18-2.76-6.18-8,0-5,2.34-8.79,7.38-8.79,2.82,0,4.11,1.15,4.11,2.25A1.62,1.62,0,0,1,317,70c-1.95,0-1.35-3.07-3.66-3.07C311.22,66.89,310.05,69.47,310.05,73Z" fill="#ffffe4"/><path d="M328.59,81.05a4.66,4.66,0,0,1-3.6,1.77,3.05,3.05,0,0,1-3.27-3.27v-12l-1.83-.3v-.63a3.82,3.82,0,0,0,4-3.59h.57v3.18l3.66.41v.63l-3.66.37V79.13c0,1.71.57,2.37,1.65,2.37a3,3,0,0,0,2.13-1Z" fill="#ffffe4"/><path d="M343.38,74c0,5.31-2.8,8.82-7,8.82-4.35,0-6.6-3-6.6-7.95,0-5.33,2.73-8.85,7-8.85S343.38,69.05,343.38,74Zm-3.06,1.47c0-4.44-1.2-8.67-4.14-8.67-2,0-3.24,2-3.24,6.51s1.14,8.73,4,8.73C338.82,82,340.32,80.09,340.32,75.47Z" fill="#ffffe4"/><path d="M353.55,82.52h-8.43V82c2.43-.18,2.52-.24,2.52-3.39V70.85c0-1.95-.72-2.16-2.82-2.16v-.57a6.17,6.17,0,0,0,5-2.1l.54.15v2.58c1.5-2,2.73-2.73,4.14-2.73s2.25.64,2.25,1.65a1.52,1.52,0,0,1-1.47,1.59c-1.26,0-1.2-1.55-2.31-1.55-1.32,0-2.61,1.88-2.61,5.87v5c0,3.15.12,3.18,3.15,3.39Z" fill="#ffffe4"/></svg>