<svg xmlns="http://www.w3.org/2000/svg" viewBox="0 0 1769.59 134"><title>LOGO_JulietteMarounek</title><path d="M73.46,138.09V105.17h40.12v31.39c0,4.6,2.84,7.66,9.25,7.66,5.94,0,9-2.76,9-7.35V35.64h41.06v98.63c0,21-20.65,34.15-49.61,34.15C95.53,168.42,73.46,157.85,73.46,138.09Z" transform="translate(-73.46 -34.42)" fill="#ffffe4"/><path d="M186.22,132V35.64h39.65V130.9c0,6.58.71,13.32,10,13.32s10-6.58,10-13.32V35.64h39.64V132c0,23.89-15.67,36.45-49.61,36.45S186.22,155.86,186.22,132Z" transform="translate(-73.46 -34.42)" fill="#ffffe4"/><path d="M301.12,35.64H342V144.83h42v22.36H301.12Z" transform="translate(-73.46 -34.42)" fill="#ffffe4"/><path d="M393.47,35.64h39.41V167.19H393.47Z" transform="translate(-73.46 -34.42)" fill="#ffffe4"/><path d="M449.26,35.64h81.67V61.06H490.81V86.64h38.45v24.81H490.81v30.17h42.73v25.57H449.26Z" transform="translate(-73.46 -34.42)" fill="#ffffe4"/><path d="M564.64,60.91H540.42V35.64h89.26V60.91H605.47V167.19H564.64Z" transform="translate(-73.46 -34.42)" fill="#ffffe4"/><path d="M658.65,60.91H634.43V35.64H723.7V60.91H699.48V167.19H658.65Z" transform="translate(-73.46 -34.42)" fill="#ffffe4"/><path d="M735.09,35.64h81.67V61.06H776.64V86.64H815.1v24.81H776.64v30.17h42.73v25.57H735.09Z" transform="translate(-73.46 -34.42)" fill="#ffffe4"/><path d="M888.45,35.64h62.2l17.09,80.25,17.1-80.25h62.67V167.19h-37.27V72.4l-23.5,94.79H950.18L925.25,72.4v94.79h-36.8Z" transform="translate(-73.46 -34.42)" fill="#ffffe4"/><path d="M1079.8,35.64h69.08l19.47,131.55h-38.7l-2.85-21.28h-24.69l-2.37,21.28H1060.1Zm43.92,89.28-9-66.92h-1.9l-7.6,66.92Z" transform="translate(-73.46 -34.42)" fill="#ffffe4"/><path d="M1180.69,35.64h62.68c31.33,0,37,14.55,37,36.76,0,14.39-4.75,22.81-20.18,26.18,12.82,1.69,17.33,8.43,17.33,18.84v49.77h-40.12V115.74c0-7.81-4.75-8.58-15.43-8.58v60h-41.31ZM1232,84.34c5.46,0,8.55-3.83,8.55-11.94,0-10.26-1.9-12.41-8.78-12.41h-9.5V84.34Z" transform="translate(-73.46 -34.42)" fill="#ffffe4"/><path d="M1292.27,131.36V68.72c0-22.51,17.33-34.3,50.33-34.3s50.33,11.79,50.33,34.3v62.64c0,23.89-17.81,37.06-50.33,37.06S1292.27,155.25,1292.27,131.36Zm50.81,12.86c6.17,0,9.25-3.68,9.25-11.64V68.26c0-6.58-3.08-9.65-9-9.65-6.88,0-10.2,3.22-10.2,10v64.16C1333.11,141,1335.72,144.22,1343.08,144.22Z" transform="translate(-73.46 -34.42)" fill="#ffffe4"/><path d="M1406.94,132V35.64h39.64V130.9c0,6.58.72,13.32,10,13.32s10-6.58,10-13.32V35.64h39.65V132c0,23.89-15.67,36.45-49.62,36.45S1406.94,155.86,1406.94,132Z" transform="translate(-73.46 -34.42)" fill="#ffffe4"/><path d="M1521.84,35.64h42l18.76,62.94V35.64H1622V167.19h-39.88l-20.42-65.85v65.85h-39.88Z" transform="translate(-73.46 -34.42)" fill="#ffffe4"/><path d="M1640.07,35.64h81.66V61.06h-40.12V86.64h38.46v24.81h-38.46v30.17h42.73v25.57h-84.27Z" transform="translate(-73.46 -34.42)" fill="#ffffe4"/><path d="M1737.88,35.64h40.35V88.32l19-52.68h41.07l-22.79,60.19L1843,167.19h-42.25l-22.32-63.71v63.71h-40.59Z" transform="translate(-73.46 -34.42)" fill="#ffffe4"/></svg>