<svg xmlns="http://www.w3.org/2000/svg" viewBox="0 0 1920 108"><title>MENU</title><path d="M127.68,85V67.21h2.7v8.55l-1.3-1h10.8l-1.3,1V67.21h2.7V85h-2.7V76.31l1.3,1h-10.8l1.3-1V85Z" fill="#ffffe4"/><path d="M152.45,85.36A8.43,8.43,0,0,1,148,84.25a7.21,7.21,0,0,1-2.85-3.19,12.78,12.78,0,0,1,0-9.91A7.31,7.31,0,0,1,148,67.94a8.35,8.35,0,0,1,4.42-1.13,8.5,8.5,0,0,1,4.47,1.13,7.31,7.31,0,0,1,2.85,3.21,13,13,0,0,1,0,9.91,7.25,7.25,0,0,1-2.84,3.19A8.58,8.58,0,0,1,152.45,85.36Zm0-2.47a5.29,5.29,0,0,0,3-.8,5.15,5.15,0,0,0,1.89-2.32,9.07,9.07,0,0,0,.66-3.66,9.2,9.2,0,0,0-.65-3.67,5.08,5.08,0,0,0-1.88-2.34,5.33,5.33,0,0,0-3-.81,4.94,4.94,0,0,0-4.81,3.15,9.19,9.19,0,0,0-.66,3.67,9.08,9.08,0,0,0,.65,3.66,5,5,0,0,0,1.89,2.32A5.29,5.29,0,0,0,152.45,82.89Z" fill="#ffffe4"/><path d="M163.65,85V67.21h3.7l5.28,14.58,5.27-14.58h3.7V85h-2.7V72l-4.77,13h-3l-4.78-13V85Z" fill="#ffffe4"/><path d="M185.4,85V67.21H197v2.48H188.1v5.17h8.55v2.4H188.1v5.23h9.05V85Z" fill="#ffffe4"/><path d="M634.81,85l-4.7-17.75H633l3.45,14,3.45-14h2.75l3.45,14,3.42-14h2.93L647.71,85h-3.15L641.26,72,638,85Z" fill="#ffffe4"/><path d="M662,85.36a8.43,8.43,0,0,1-4.42-1.11,7.33,7.33,0,0,1-2.85-3.19,12.78,12.78,0,0,1,0-9.91,7.44,7.44,0,0,1,2.85-3.21A8.35,8.35,0,0,1,662,66.81a8.48,8.48,0,0,1,4.47,1.13,7.31,7.31,0,0,1,2.85,3.21,12.9,12.9,0,0,1,0,9.91,7.25,7.25,0,0,1-2.84,3.19A8.56,8.56,0,0,1,662,85.36Zm0-2.47a5.32,5.32,0,0,0,3-.8,5.2,5.2,0,0,0,1.88-2.32,9.07,9.07,0,0,0,.66-3.66,9.38,9.38,0,0,0-.64-3.67A5.16,5.16,0,0,0,665,70.1a5.3,5.3,0,0,0-3-.81,4.94,4.94,0,0,0-4.81,3.15,10.58,10.58,0,0,0,0,7.33,5,5,0,0,0,1.89,2.32A5.29,5.29,0,0,0,662,82.89Z" fill="#ffffe4"/><path d="M673.19,85V67.21h7.07a7.68,7.68,0,0,1,3.28.65,5,5,0,0,1,2.12,1.85,5.27,5.27,0,0,1,.75,2.85,4.26,4.26,0,0,1-.54,2.15,4.13,4.13,0,0,1-1.42,1.51,4,4,0,0,1-1.89.64l-.12-.22a4,4,0,0,1,2.6.76,3.36,3.36,0,0,1,1.07,2.39l.48,5.17h-2.73l-.42-4.82a2.11,2.11,0,0,0-.73-1.59,3.46,3.46,0,0,0-2.12-.51h-4.7V85Zm2.7-9.4h4.42a3.55,3.55,0,0,0,2.41-.76,2.67,2.67,0,0,0,.89-2.16,2.72,2.72,0,0,0-.9-2.19,3.94,3.94,0,0,0-2.62-.76h-4.2Z" fill="#ffffe4"/><path d="M689.81,85V67.21h2.7v8.48L700,67.21h3.27L696.46,75l7.25,10h-3.17l-5.88-8.1-2.15,2.4V85Z" fill="#ffffe4"/><path d="M1181.81,85l6.4-17.75h3.42L1198,85h-2.87l-1.63-4.62h-7.25l-1.6,4.62Zm5.32-7.07h5.58l-2.8-8.1Z" fill="#ffffe4"/><path d="M1200.18,85V67.21h6.38a8.38,8.38,0,0,1,4.82,1.15A4.16,4.16,0,0,1,1213,72a4,4,0,0,1-.48,2,3.31,3.31,0,0,1-1.39,1.33,4.69,4.69,0,0,1-2.16.52l0-.1a5.11,5.11,0,0,1,3.53,1.23,4.07,4.07,0,0,1,1.27,3.12,4.28,4.28,0,0,1-1.63,3.65,7.59,7.59,0,0,1-4.62,1.22Zm2.7-10.17h3.63a4.8,4.8,0,0,0,2.75-.68,2.17,2.17,0,0,0,1-1.9,2.21,2.21,0,0,0-.93-1.94,5.05,5.05,0,0,0-2.79-.63h-3.63Zm0,7.75h4.55a4.36,4.36,0,0,0,2.62-.69,2.35,2.35,0,0,0,.93-2,2.44,2.44,0,0,0-.93-2,4.23,4.23,0,0,0-2.62-.72h-4.55Z" fill="#ffffe4"/><path d="M1224.36,85.36a8.45,8.45,0,0,1-4.43-1.11,7.33,7.33,0,0,1-2.85-3.19,12.78,12.78,0,0,1,0-9.91,7.44,7.44,0,0,1,2.85-3.21,8.36,8.36,0,0,1,4.43-1.13,8.47,8.47,0,0,1,4.46,1.13,7.31,7.31,0,0,1,2.85,3.21,12.9,12.9,0,0,1,0,9.91,7.25,7.25,0,0,1-2.84,3.19A8.52,8.52,0,0,1,1224.36,85.36Zm0-2.47a5.31,5.31,0,0,0,3-.8,5.2,5.2,0,0,0,1.88-2.32,8.9,8.9,0,0,0,.67-3.66,9.37,9.37,0,0,0-.65-3.67,5.16,5.16,0,0,0-1.89-2.34,5.29,5.29,0,0,0-3-.81,5.19,5.19,0,0,0-2.93.81,5.29,5.29,0,0,0-1.89,2.34,10.58,10.58,0,0,0,0,7.33,5.09,5.09,0,0,0,1.89,2.32A5.3,5.3,0,0,0,1224.36,82.89Z" fill="#ffffe4"/><path d="M1242.43,85.36a7.84,7.84,0,0,1-3.66-.81,5.69,5.69,0,0,1-2.4-2.31,7.17,7.17,0,0,1-.84-3.55V67.19h2.7v11.5a4.21,4.21,0,1,0,8.4,0V67.19h2.7v11.5a7.17,7.17,0,0,1-.84,3.55,5.64,5.64,0,0,1-2.38,2.31A7.87,7.87,0,0,1,1242.43,85.36Z" fill="#ffffe4"/><path d="M1256.86,85V69.69h-5.45V67.21H1265v2.48h-5.45V85Z" fill="#ffffe4"/><path d="M1722.73,85.36a8,8,0,0,1-4.23-1.11,7.58,7.58,0,0,1-2.85-3.19,11.1,11.1,0,0,1-1-5,11.31,11.31,0,0,1,1-4.94,7.56,7.56,0,0,1,2.84-3.22,7.88,7.88,0,0,1,4.27-1.14,7.39,7.39,0,0,1,5.13,1.65,7.93,7.93,0,0,1,2.37,4.58l-2.82.15a5.1,5.1,0,0,0-1.5-2.87,4.59,4.59,0,0,0-3.18-1,4.8,4.8,0,0,0-2.81.82,5.43,5.43,0,0,0-1.85,2.35,10.42,10.42,0,0,0,0,7.3,5.2,5.2,0,0,0,1.86,2.33,4.93,4.93,0,0,0,2.78.8,4.61,4.61,0,0,0,3.33-1.14,5.22,5.22,0,0,0,1.49-3.14l2.83.15a8.82,8.82,0,0,1-1.3,3.5,6.64,6.64,0,0,1-2.58,2.29A8.22,8.22,0,0,1,1722.73,85.36Z" fill="#ffffe4"/><path d="M1740.73,85.36a8.47,8.47,0,0,1-4.43-1.11,7.33,7.33,0,0,1-2.85-3.19,12.78,12.78,0,0,1,0-9.91,7.44,7.44,0,0,1,2.85-3.21,8.38,8.38,0,0,1,4.43-1.13,8.47,8.47,0,0,1,4.46,1.13,7.31,7.31,0,0,1,2.85,3.21,12.9,12.9,0,0,1,0,9.91,7.25,7.25,0,0,1-2.84,3.19A8.52,8.52,0,0,1,1740.73,85.36Zm0-2.47a5.31,5.31,0,0,0,3-.8,5.2,5.2,0,0,0,1.88-2.32,8.9,8.9,0,0,0,.67-3.66,9.37,9.37,0,0,0-.65-3.67,5.09,5.09,0,0,0-1.89-2.34,5.29,5.29,0,0,0-3-.81,5.19,5.19,0,0,0-2.93.81,5.29,5.29,0,0,0-1.89,2.34,10.58,10.58,0,0,0,0,7.33,5.09,5.09,0,0,0,1.89,2.32A5.3,5.3,0,0,0,1740.73,82.89Z" fill="#ffffe4"/><path d="M1751.93,85V67.21h3.42l8.2,14.48V67.21h2.7V85h-3.55l-8.07-14.15V85Z" fill="#ffffe4"/><path d="M1773.15,85V69.69h-5.45V67.21h13.6v2.48h-5.45V85Z" fill="#ffffe4"/><path d="M1779.85,85l6.4-17.75h3.43l6.4,17.75h-2.88l-1.62-4.62h-7.25l-1.6,4.62Zm5.33-7.07h5.57l-2.8-8.1Z" fill="#ffffe4"/><path d="M1805,85.36a8,8,0,0,1-4.23-1.11,7.58,7.58,0,0,1-2.85-3.19,11.1,11.1,0,0,1-1-5,11.31,11.31,0,0,1,1-4.94,7.56,7.56,0,0,1,2.84-3.22,7.88,7.88,0,0,1,4.27-1.14,7.39,7.39,0,0,1,5.13,1.65,7.93,7.93,0,0,1,2.37,4.58l-2.82.15a5.1,5.1,0,0,0-1.5-2.87,4.59,4.59,0,0,0-3.18-1,4.8,4.8,0,0,0-2.81.82,5.43,5.43,0,0,0-1.85,2.35,10.42,10.42,0,0,0,0,7.3,5.2,5.2,0,0,0,1.86,2.33,4.93,4.93,0,0,0,2.78.8,4.61,4.61,0,0,0,3.33-1.14,5.22,5.22,0,0,0,1.49-3.14l2.83.15a8.82,8.82,0,0,1-1.3,3.5,6.64,6.64,0,0,1-2.58,2.29A8.22,8.22,0,0,1,1805,85.36Z" fill="#ffffe4"/><path d="M1819,85V69.69h-5.45V67.21h13.6v2.48h-5.45V85Z" fill="#ffffe4"/></svg>