<svg xmlns="http://www.w3.org/2000/svg" viewBox="0 0 103 79"><title>PICTO</title><path d="M50.78,53,37,47.94,23.88,50.79l3.24-13L22.46,23.94,36.2,29l13.16-2.85-3.23,13ZM37.12,46.89l12,4.41L45.08,39.18,48,27.43,36.13,30,24.08,25.6l4.08,12.12L25.25,49.47Z" fill="#ffffe4"/><path d="M81.2,51.21,67,47.36l-14.35,3.5L57,38.33,53,25.69l14.22,3.85L81.6,26,77.2,38.58ZM67,46.32l.12,0,12.58,3.4-3.55-11.2L80,27.46l-12.8,3.12-.12,0-12.57-3.4,3.54,11.2-3.9,11.1Z" fill="#ffffe4"/><path d="M43.47,32.6,36.89,21.67,30,32.43,17.51,38.22,29.77,44.3l6.58,10.93,6.93-10.76,12.45-5.79ZM40.3,40.94c0,2.29-1.74,3.73-4.32,3.73-2.77,0-4.29-1.54-4.29-3.74v-.64h1.9v.64c0,1.25.78,2.14,2.39,2.14a2.05,2.05,0,0,0,2.36-2.2V31.74h2Z" fill="#ffffe4"/><path d="M60.18,44.9V32.18h1.93l5,10.7,5-10.7h2V44.9H72.13v-5a37,37,0,0,1,.12-4.13L68,44.9H66.18L62,35.77a30.07,30.07,0,0,1,.14,3.7V44.9Z" fill="#ffffe4"/></svg>