<svg xmlns="http://www.w3.org/2000/svg" viewBox="0 0 1080 1080"><title>Picto_JM</title><polygon points="165.32 670.94 205.49 509.07 76.53 279.34 316.89 401.16 480.42 365.71 440.25 527.58 533.95 736.76 328.84 635.49 165.32 670.94" fill="none" stroke="#ffffe3" stroke-miterlimit="10" stroke-width="13.12"/><polygon points="593.42 687.78 653.13 517.64 598.86 346.09 792.63 398.52 988 350.87 928.29 521.01 982.56 692.56 788.79 640.13 593.42 687.78" fill="none" stroke="#ffffe3" stroke-miterlimit="10" stroke-width="14.45"/><path d="M412.41,441.87,326.35,299,235.79,439.7,73.09,515.26l160.23,79.52,86.06,142.87L409.94,597l162.7-75.56ZM371,550.91c0,29.9-22.78,48.75-56.56,48.75-36.14,0-56.05-20.24-56.05-49V542.4h24.89v8.28c0,16.33,10.21,28.06,31.16,28.06,21.48,0,30.9-11.5,30.9-28.75V430.66H371Z" fill="#ffffe3"/><path d="M690.9,612.23V429.09h27.69l71.83,154,71.83-154h28.28V612.23H862.84V539.79c0-34.2.29-46.61,1.72-59.53l-60.86,132H777.16L716.57,480.77c1.46,8.86,2,27.6,2,53.19v78.27Z" fill="#ffffe3"/></svg>